<svg id="visual" viewBox="0 0 4000 600" width="4000" height="600" xmlns="http://www.w3.org/2000/svg" xmlns:xlink="http://www.w3.org/1999/xlink" version="1.1"><rect x="0" y="0" width="4000" height="600" fill="#343131"></rect><path d="M0 504L55.5 492.2C111 480.3 222 456.7 333.2 436C444.3 415.3 555.7 397.7 666.8 393.3C778 389 889 398 1000 415.8C1111 433.7 1222 460.3 1333.2 461.3C1444.3 462.3 1555.7 437.7 1666.8 420.7C1778 403.7 1889 394.3 2000 395.8C2111 397.3 2222 409.7 2333.2 424.3C2444.3 439 2555.7 456 2666.8 471.3C2778 486.7 2889 500.3 3000 487.3C3111 474.3 3222 434.7 3333.2 431.5C3444.3 428.3 3555.7 461.7 3666.8 475.8C3778 490 3889 485 3944.5 482.5L4000 480" fill="none" stroke-linecap="round" stroke-linejoin="miter" stroke="#a04747" stroke-width="40"></path></svg>